<svg xmlns="http://www.w3.org/2000/svg" version="1.1" xmlns:xlink="http://www.w3.org/1999/xlink" xmlns:svgjs="http://svgjs.com/svgjs" width="1920" height="1080" preserveAspectRatio="none" viewBox="0 0 1920 1080"><g mask="url(&quot;#SvgjsMask1012&quot;)" fill="none"><rect width="1920" height="1080" x="0" y="0" fill="url(#SvgjsRadialGradient1013)"></rect><g transform="translate(0, 475.2)" stroke-linecap="round"><path d="M356.5 488.63 L356.5 591.37" stroke-width="53.25" stroke="rgba(33, 150, 33, 1)"></path><path d="M427.5 353 L427.5 727" stroke-width="53.25" stroke="rgba(57, 204, 57, 1)"></path><path d="M498.5 456.56 L498.5 623.44" stroke-width="53.25" stroke="rgba(57, 204, 57, 1)"></path><path d="M569.5 361.56 L569.5 718.43" stroke-width="53.25" stroke="rgba(57, 204, 57, 1)"></path><path d="M640.5 440.79 L640.5 639.21" stroke-width="53.25" stroke="rgba(57, 204, 57, 1)"></path><path d="M711.5 489.52 L711.5 590.48" stroke-width="53.25" stroke="rgba(33, 150, 33, 1)"></path><path d="M782.5 385.5 L782.5 694.5" stroke-width="53.25" stroke="rgba(33, 150, 33, 1)"></path><path d="M853.5 219.6 L853.5 860.4" stroke-width="53.25" stroke="rgba(33, 150, 33, 1)"></path><path d="M924.5 429.23 L924.5 650.77" stroke-width="53.25" stroke="rgba(33, 150, 33, 1)"></path><path d="M995.5 341.46 L995.5 738.54" stroke-width="53.25" stroke="rgba(57, 204, 57, 1)"></path><path d="M1066.5 282.53 L1066.5 797.47" stroke-width="53.25" stroke="rgba(33, 150, 33, 1)"></path><path d="M1137.5 198.06 L1137.5 881.94" stroke-width="53.25" stroke="rgba(33, 150, 33, 1)"></path><path d="M1208.5 379.88 L1208.5 700.12" stroke-width="53.25" stroke="rgba(57, 204, 57, 1)"></path><path d="M1279.5 462.5 L1279.5 617.5" stroke-width="53.25" stroke="rgba(57, 204, 57, 1)"></path><path d="M1350.5 492.81 L1350.5 587.2" stroke-width="53.25" stroke="rgba(33, 150, 33, 1)"></path><path d="M1421.5 482.37 L1421.5 597.63" stroke-width="53.25" stroke="rgba(33, 150, 33, 1)"></path><path d="M1492.5 376.31 L1492.5 703.68" stroke-width="53.25" stroke="rgba(57, 204, 57, 1)"></path><path d="M1563.5 376.26 L1563.5 703.74" stroke-width="53.25" stroke="rgba(57, 204, 57, 1)"></path></g></g><defs><mask id="SvgjsMask1012"><rect width="1920" height="1080" fill="#ffffff"></rect></mask><radialGradient cx="50%" cy="100%" r="1444.99" gradientUnits="userSpaceOnUse" id="SvgjsRadialGradient1013"><stop stop-color="rgba(36, 105, 28, 1)" offset="0"></stop><stop stop-color="rgba(255, 255, 255, 1)" offset="0.94"></stop></radialGradient></defs></svg>