<svg xmlns="http://www.w3.org/2000/svg" version="1.1" xmlns:xlink="http://www.w3.org/1999/xlink" xmlns:svgjs="http://svgjs.com/svgjs" width="1920" height="1080" preserveAspectRatio="none" viewBox="0 0 1920 1080"><g mask="url(&quot;#SvgjsMask4478&quot;)" fill="none"><rect width="1920" height="1080" x="0" y="0" fill="url(#SvgjsRadialGradient4479)"></rect><g transform="translate(-153.6, 540)" stroke-linecap="round"><path d="M11 286.93 L11 793.07" stroke-width="9.75" stroke="rgba(33, 150, 33, 1)"></path><path d="M24 362.6 L24 717.4" stroke-width="9.75" stroke="rgba(33, 150, 33, 1)"></path><path d="M37 391.88 L37 688.12" stroke-width="9.75" stroke="rgba(33, 150, 33, 1)"></path><path d="M50 441.44 L50 638.56" stroke-width="9.75" stroke="rgba(57, 204, 57, 1)"></path><path d="M63 163.32 L63 916.67" stroke-width="9.75" stroke="rgba(33, 150, 33, 1)"></path><path d="M76 373.41 L76 706.59" stroke-width="9.75" stroke="rgba(33, 150, 33, 1)"></path><path d="M89 371.25 L89 708.75" stroke-width="9.75" stroke="rgba(57, 204, 57, 1)"></path><path d="M102 352.76 L102 727.24" stroke-width="9.75" stroke="rgba(33, 150, 33, 1)"></path><path d="M115 363.1 L115 716.9" stroke-width="9.75" stroke="rgba(33, 150, 33, 1)"></path><path d="M128 293.34 L128 786.66" stroke-width="9.75" stroke="rgba(57, 204, 57, 1)"></path><path d="M141 248.98 L141 831.02" stroke-width="9.75" stroke="rgba(33, 150, 33, 1)"></path><path d="M154 484.67 L154 595.34" stroke-width="9.75" stroke="rgba(33, 150, 33, 1)"></path><path d="M167 410.31 L167 669.68" stroke-width="9.75" stroke="rgba(57, 204, 57, 1)"></path><path d="M180 82.21 L180 997.79" stroke-width="9.75" stroke="rgba(33, 150, 33, 1)"></path><path d="M193 469.95 L193 610.04" stroke-width="9.75" stroke="rgba(33, 150, 33, 1)"></path><path d="M206 104.57 L206 975.42" stroke-width="9.75" stroke="rgba(33, 150, 33, 1)"></path><path d="M219 247.07 L219 832.93" stroke-width="9.75" stroke="rgba(33, 150, 33, 1)"></path><path d="M232 440.51 L232 639.49" stroke-width="9.75" stroke="rgba(57, 204, 57, 1)"></path><path d="M245 67.8 L245 1012.2" stroke-width="9.75" stroke="rgba(33, 150, 33, 1)"></path><path d="M258 161.56 L258 918.44" stroke-width="9.75" stroke="rgba(33, 150, 33, 1)"></path><path d="M271 215.73 L271 864.27" stroke-width="9.75" stroke="rgba(57, 204, 57, 1)"></path><path d="M284 194.26 L284 885.74" stroke-width="9.75" stroke="rgba(57, 204, 57, 1)"></path><path d="M297 82.6 L297 997.4" stroke-width="9.75" stroke="rgba(57, 204, 57, 1)"></path><path d="M310 363.5 L310 716.5" stroke-width="9.75" stroke="rgba(33, 150, 33, 1)"></path><path d="M323 88.46 L323 991.54" stroke-width="9.75" stroke="rgba(57, 204, 57, 1)"></path><path d="M336 357.18 L336 722.82" stroke-width="9.75" stroke="rgba(33, 150, 33, 1)"></path><path d="M349 455.14 L349 624.86" stroke-width="9.75" stroke="rgba(57, 204, 57, 1)"></path><path d="M362 321.98 L362 758.02" stroke-width="9.75" stroke="rgba(33, 150, 33, 1)"></path><path d="M375 180.02 L375 899.98" stroke-width="9.75" stroke="rgba(33, 150, 33, 1)"></path><path d="M388 97.77 L388 982.23" stroke-width="9.75" stroke="rgba(33, 150, 33, 1)"></path><path d="M401 146.62 L401 933.38" stroke-width="9.75" stroke="rgba(57, 204, 57, 1)"></path><path d="M414 179.33 L414 900.67" stroke-width="9.75" stroke="rgba(57, 204, 57, 1)"></path><path d="M427 217.32 L427 862.67" stroke-width="9.75" stroke="rgba(57, 204, 57, 1)"></path><path d="M440 175.48 L440 904.52" stroke-width="9.75" stroke="rgba(33, 150, 33, 1)"></path><path d="M453 173.75 L453 906.25" stroke-width="9.75" stroke="rgba(57, 204, 57, 1)"></path><path d="M466 51.17 L466 1028.83" stroke-width="9.75" stroke="rgba(33, 150, 33, 1)"></path><path d="M479 65.23 L479 1014.77" stroke-width="9.75" stroke="rgba(57, 204, 57, 1)"></path><path d="M492 199.91 L492 880.09" stroke-width="9.75" stroke="rgba(33, 150, 33, 1)"></path><path d="M505 325.82 L505 754.18" stroke-width="9.75" stroke="rgba(57, 204, 57, 1)"></path><path d="M518 206.31 L518 873.68" stroke-width="9.75" stroke="rgba(57, 204, 57, 1)"></path><path d="M531 371.04 L531 708.96" stroke-width="9.75" stroke="rgba(57, 204, 57, 1)"></path><path d="M544 19.83 L544 1060.17" stroke-width="9.75" stroke="rgba(33, 150, 33, 1)"></path><path d="M557 283.02 L557 796.98" stroke-width="9.75" stroke="rgba(57, 204, 57, 1)"></path><path d="M570 230.12 L570 849.88" stroke-width="9.75" stroke="rgba(57, 204, 57, 1)"></path><path d="M583 108.07 L583 971.92" stroke-width="9.75" stroke="rgba(57, 204, 57, 1)"></path><path d="M596 330.35 L596 749.65" stroke-width="9.75" stroke="rgba(33, 150, 33, 1)"></path><path d="M609 228.54 L609 851.46" stroke-width="9.75" stroke="rgba(57, 204, 57, 1)"></path><path d="M622 381.49 L622 698.51" stroke-width="9.75" stroke="rgba(57, 204, 57, 1)"></path><path d="M635 339.82 L635 740.17" stroke-width="9.75" stroke="rgba(57, 204, 57, 1)"></path><path d="M648 77.55 L648 1002.45" stroke-width="9.75" stroke="rgba(33, 150, 33, 1)"></path><path d="M661 9.19 L661 1070.81" stroke-width="9.75" stroke="rgba(33, 150, 33, 1)"></path><path d="M674 38.7 L674 1041.3" stroke-width="9.75" stroke="rgba(33, 150, 33, 1)"></path><path d="M687 254.68 L687 825.33" stroke-width="9.75" stroke="rgba(33, 150, 33, 1)"></path><path d="M700 105.56 L700 974.44" stroke-width="9.75" stroke="rgba(33, 150, 33, 1)"></path><path d="M713 93.89 L713 986.11" stroke-width="9.75" stroke="rgba(57, 204, 57, 1)"></path><path d="M726 481.37 L726 598.63" stroke-width="9.75" stroke="rgba(57, 204, 57, 1)"></path><path d="M739 448.63 L739 631.37" stroke-width="9.75" stroke="rgba(33, 150, 33, 1)"></path><path d="M752 193.56 L752 886.44" stroke-width="9.75" stroke="rgba(57, 204, 57, 1)"></path><path d="M765 182.49 L765 897.51" stroke-width="9.75" stroke="rgba(57, 204, 57, 1)"></path><path d="M778 108.57 L778 971.42" stroke-width="9.75" stroke="rgba(57, 204, 57, 1)"></path><path d="M791 414.33 L791 665.67" stroke-width="9.75" stroke="rgba(57, 204, 57, 1)"></path><path d="M804 326.5 L804 753.5" stroke-width="9.75" stroke="rgba(33, 150, 33, 1)"></path><path d="M817 408.57 L817 671.42" stroke-width="9.75" stroke="rgba(57, 204, 57, 1)"></path><path d="M830 206.22 L830 873.78" stroke-width="9.75" stroke="rgba(33, 150, 33, 1)"></path><path d="M843 470.25 L843 609.75" stroke-width="9.75" stroke="rgba(57, 204, 57, 1)"></path><path d="M856 433.31 L856 646.68" stroke-width="9.75" stroke="rgba(33, 150, 33, 1)"></path><path d="M869 329.4 L869 750.6" stroke-width="9.75" stroke="rgba(33, 150, 33, 1)"></path><path d="M882 293.84 L882 786.16" stroke-width="9.75" stroke="rgba(33, 150, 33, 1)"></path><path d="M895 180.2 L895 899.8" stroke-width="9.75" stroke="rgba(33, 150, 33, 1)"></path><path d="M908 373 L908 707" stroke-width="9.75" stroke="rgba(33, 150, 33, 1)"></path><path d="M921 87.43 L921 992.57" stroke-width="9.75" stroke="rgba(33, 150, 33, 1)"></path><path d="M934 71.04 L934 1008.96" stroke-width="9.75" stroke="rgba(33, 150, 33, 1)"></path><path d="M947 457.36 L947 622.64" stroke-width="9.75" stroke="rgba(57, 204, 57, 1)"></path><path d="M960 405.65 L960 674.35" stroke-width="9.75" stroke="rgba(33, 150, 33, 1)"></path><path d="M973 83.05 L973 996.95" stroke-width="9.75" stroke="rgba(57, 204, 57, 1)"></path><path d="M986 124.4 L986 955.6" stroke-width="9.75" stroke="rgba(33, 150, 33, 1)"></path><path d="M999 430.85 L999 649.15" stroke-width="9.75" stroke="rgba(33, 150, 33, 1)"></path><path d="M1012 344.32 L1012 735.67" stroke-width="9.75" stroke="rgba(33, 150, 33, 1)"></path><path d="M1025 273.75 L1025 806.25" stroke-width="9.75" stroke="rgba(57, 204, 57, 1)"></path><path d="M1038 53.78 L1038 1026.22" stroke-width="9.75" stroke="rgba(57, 204, 57, 1)"></path><path d="M1051 334.39 L1051 745.61" stroke-width="9.75" stroke="rgba(57, 204, 57, 1)"></path><path d="M1064 44.56 L1064 1035.44" stroke-width="9.75" stroke="rgba(33, 150, 33, 1)"></path><path d="M1077 32.83 L1077 1047.17" stroke-width="9.75" stroke="rgba(57, 204, 57, 1)"></path><path d="M1090 300.84 L1090 779.16" stroke-width="9.75" stroke="rgba(33, 150, 33, 1)"></path><path d="M1103 273.69 L1103 806.31" stroke-width="9.75" stroke="rgba(33, 150, 33, 1)"></path><path d="M1116 249.46 L1116 830.54" stroke-width="9.75" stroke="rgba(57, 204, 57, 1)"></path><path d="M1129 15.31 L1129 1064.69" stroke-width="9.75" stroke="rgba(33, 150, 33, 1)"></path><path d="M1142 119.38 L1142 960.62" stroke-width="9.75" stroke="rgba(33, 150, 33, 1)"></path><path d="M1155 309.78 L1155 770.22" stroke-width="9.75" stroke="rgba(33, 150, 33, 1)"></path><path d="M1168 362.26 L1168 717.74" stroke-width="9.75" stroke="rgba(33, 150, 33, 1)"></path><path d="M1181 314.29 L1181 765.71" stroke-width="9.75" stroke="rgba(57, 204, 57, 1)"></path><path d="M1194 148.87 L1194 931.13" stroke-width="9.75" stroke="rgba(33, 150, 33, 1)"></path><path d="M1207 249.46 L1207 830.54" stroke-width="9.75" stroke="rgba(33, 150, 33, 1)"></path><path d="M1220 27.38 L1220 1052.62" stroke-width="9.75" stroke="rgba(57, 204, 57, 1)"></path><path d="M1233 284.16 L1233 795.84" stroke-width="9.75" stroke="rgba(57, 204, 57, 1)"></path><path d="M1246 238.45 L1246 841.55" stroke-width="9.75" stroke="rgba(33, 150, 33, 1)"></path><path d="M1259 398.26 L1259 681.74" stroke-width="9.75" stroke="rgba(57, 204, 57, 1)"></path><path d="M1272 257.44 L1272 822.57" stroke-width="9.75" stroke="rgba(33, 150, 33, 1)"></path><path d="M1285 361.12 L1285 718.88" stroke-width="9.75" stroke="rgba(57, 204, 57, 1)"></path><path d="M1298 214.44 L1298 865.57" stroke-width="9.75" stroke="rgba(57, 204, 57, 1)"></path><path d="M1311 159.04 L1311 920.96" stroke-width="9.75" stroke="rgba(33, 150, 33, 1)"></path><path d="M1324 416.17 L1324 663.84" stroke-width="9.75" stroke="rgba(57, 204, 57, 1)"></path><path d="M1337 314.35 L1337 765.65" stroke-width="9.75" stroke="rgba(57, 204, 57, 1)"></path><path d="M1350 248.08 L1350 831.92" stroke-width="9.75" stroke="rgba(33, 150, 33, 1)"></path><path d="M1363 365.12 L1363 714.88" stroke-width="9.75" stroke="rgba(57, 204, 57, 1)"></path><path d="M1376 380.68 L1376 699.32" stroke-width="9.75" stroke="rgba(57, 204, 57, 1)"></path><path d="M1389 113.65 L1389 966.35" stroke-width="9.75" stroke="rgba(33, 150, 33, 1)"></path><path d="M1402 204.02 L1402 875.98" stroke-width="9.75" stroke="rgba(57, 204, 57, 1)"></path><path d="M1415 315.6 L1415 764.4" stroke-width="9.75" stroke="rgba(57, 204, 57, 1)"></path><path d="M1428 200.08 L1428 879.92" stroke-width="9.75" stroke="rgba(33, 150, 33, 1)"></path><path d="M1441 294.4 L1441 785.6" stroke-width="9.75" stroke="rgba(33, 150, 33, 1)"></path><path d="M1454 111.05 L1454 968.95" stroke-width="9.75" stroke="rgba(57, 204, 57, 1)"></path><path d="M1467 314.77 L1467 765.23" stroke-width="9.75" stroke="rgba(33, 150, 33, 1)"></path><path d="M1480 467.82 L1480 612.18" stroke-width="9.75" stroke="rgba(33, 150, 33, 1)"></path><path d="M1493 166.51 L1493 913.49" stroke-width="9.75" stroke="rgba(33, 150, 33, 1)"></path><path d="M1506 347.66 L1506 732.34" stroke-width="9.75" stroke="rgba(33, 150, 33, 1)"></path><path d="M1519 404.12 L1519 675.88" stroke-width="9.75" stroke="rgba(57, 204, 57, 1)"></path><path d="M1532 281.82 L1532 798.17" stroke-width="9.75" stroke="rgba(33, 150, 33, 1)"></path><path d="M1545 208.46 L1545 871.54" stroke-width="9.75" stroke="rgba(33, 150, 33, 1)"></path><path d="M1558 58.11 L1558 1021.89" stroke-width="9.75" stroke="rgba(57, 204, 57, 1)"></path><path d="M1571 346.72 L1571 733.28" stroke-width="9.75" stroke="rgba(33, 150, 33, 1)"></path><path d="M1584 98.77 L1584 981.23" stroke-width="9.75" stroke="rgba(33, 150, 33, 1)"></path><path d="M1597 319.03 L1597 760.97" stroke-width="9.75" stroke="rgba(33, 150, 33, 1)"></path><path d="M1610 424.1 L1610 655.9" stroke-width="9.75" stroke="rgba(57, 204, 57, 1)"></path><path d="M1623 115.1 L1623 964.9" stroke-width="9.75" stroke="rgba(57, 204, 57, 1)"></path><path d="M1636 50.23 L1636 1029.77" stroke-width="9.75" stroke="rgba(33, 150, 33, 1)"></path><path d="M1649 65.11 L1649 1014.89" stroke-width="9.75" stroke="rgba(33, 150, 33, 1)"></path><path d="M1662 248.14 L1662 831.86" stroke-width="9.75" stroke="rgba(57, 204, 57, 1)"></path><path d="M1675 136.38 L1675 943.62" stroke-width="9.75" stroke="rgba(33, 150, 33, 1)"></path><path d="M1688 317.18 L1688 762.82" stroke-width="9.75" stroke="rgba(57, 204, 57, 1)"></path><path d="M1701 417.68 L1701 662.32" stroke-width="9.75" stroke="rgba(57, 204, 57, 1)"></path><path d="M1714 360.93 L1714 719.08" stroke-width="9.75" stroke="rgba(57, 204, 57, 1)"></path><path d="M1727 187.73 L1727 892.27" stroke-width="9.75" stroke="rgba(33, 150, 33, 1)"></path><path d="M1740 238.21 L1740 841.79" stroke-width="9.75" stroke="rgba(33, 150, 33, 1)"></path><path d="M1753 188.51 L1753 891.49" stroke-width="9.75" stroke="rgba(33, 150, 33, 1)"></path><path d="M1766 59.38 L1766 1020.62" stroke-width="9.75" stroke="rgba(33, 150, 33, 1)"></path><path d="M1779 117.53 L1779 962.47" stroke-width="9.75" stroke="rgba(57, 204, 57, 1)"></path><path d="M1792 108.8 L1792 971.2" stroke-width="9.75" stroke="rgba(33, 150, 33, 1)"></path><path d="M1805 86.99 L1805 993.01" stroke-width="9.75" stroke="rgba(33, 150, 33, 1)"></path><path d="M1818 254.7 L1818 825.3" stroke-width="9.75" stroke="rgba(33, 150, 33, 1)"></path><path d="M1831 159.91 L1831 920.09" stroke-width="9.75" stroke="rgba(57, 204, 57, 1)"></path><path d="M1844 238.81 L1844 841.19" stroke-width="9.75" stroke="rgba(33, 150, 33, 1)"></path><path d="M1857 21.36 L1857 1058.64" stroke-width="9.75" stroke="rgba(57, 204, 57, 1)"></path><path d="M1870 412.92 L1870 667.09" stroke-width="9.75" stroke="rgba(57, 204, 57, 1)"></path><path d="M1883 228.32 L1883 851.67" stroke-width="9.75" stroke="rgba(33, 150, 33, 1)"></path><path d="M1896 194.17 L1896 885.84" stroke-width="9.75" stroke="rgba(33, 150, 33, 1)"></path><path d="M1909 335.5 L1909 744.5" stroke-width="9.75" stroke="rgba(57, 204, 57, 1)"></path></g></g><defs><mask id="SvgjsMask4478"><rect width="1920" height="1080" fill="#ffffff"></rect></mask><radialGradient cx="50%" cy="100%" r="1444.99" gradientUnits="userSpaceOnUse" id="SvgjsRadialGradient4479"><stop stop-color="rgba(3, 93, 26, 0.3)" offset="0"></stop><stop stop-color="rgba(13, 13, 13, 1)" offset="0.68"></stop></radialGradient></defs></svg>