<svg xmlns="http://www.w3.org/2000/svg" version="1.1" xmlns:xlink="http://www.w3.org/1999/xlink" xmlns:svgjs="http://svgjs.com/svgjs" width="1920" height="1080" preserveAspectRatio="none" viewBox="0 0 1920 1080"><g mask="url(&quot;#SvgjsMask1709&quot;)" fill="none"><rect width="1920" height="1080" x="0" y="0" fill="rgba(13, 13, 13, 1)"></rect><g mask="url(&quot;#SvgjsMask1710&quot;)"><path d="M975 125L1025 175L1025 225L1025 275M975 75L1025 125L1075 175L1075 225M975 -25L975 25L975 75L975 125L975 175" stroke="rgba(3, 93, 26, 1)" stroke-width="8.33"></path><path d="M962.5 175 a12.5 12.5 0 1 0 25 0 a12.5 12.5 0 1 0 -25 0zM1012.5 275 a12.5 12.5 0 1 0 25 0 a12.5 12.5 0 1 0 -25 0zM1062.5 225 a12.5 12.5 0 1 0 25 0 a12.5 12.5 0 1 0 -25 0z" fill="rgba(3, 93, 26, 1)"></path><path d="M925 75L875 125L875 175M925 -25L925 25L925 75L925 125" stroke="rgba(3, 93, 26, 1)" stroke-width="8.33"></path><path d="M912.5 125 a12.5 12.5 0 1 0 25 0 a12.5 12.5 0 1 0 -25 0zM862.5 175 a12.5 12.5 0 1 0 25 0 a12.5 12.5 0 1 0 -25 0z" fill="rgba(3, 93, 26, 1)"></path><path d="M1025 -25L1025 25" stroke="rgba(3, 93, 26, 1)" stroke-width="8.33"></path><path d="M1012.5 25 a12.5 12.5 0 1 0 25 0 a12.5 12.5 0 1 0 -25 0z" fill="rgba(3, 93, 26, 1)"></path><path d="M875 -25L875 25" stroke="rgba(7, 146, 56, 1)" stroke-width="8.33"></path><path d="M862.5 25 a12.5 12.5 0 1 0 25 0 a12.5 12.5 0 1 0 -25 0z" fill="rgba(7, 146, 56, 1)"></path><path d="M1225 75L1175 125M1175 25L1175 75M1225 125L1275 175L1275 225M1125 -25L1175 25L1225 75L1225 125L1225 175L1225 225" stroke="rgba(7, 146, 56, 1)" stroke-width="8.33"></path><path d="M1212.5 225 a12.5 12.5 0 1 0 25 0 a12.5 12.5 0 1 0 -25 0zM1162.5 125 a12.5 12.5 0 1 0 25 0 a12.5 12.5 0 1 0 -25 0zM1162.5 75 a12.5 12.5 0 1 0 25 0 a12.5 12.5 0 1 0 -25 0zM1262.5 225 a12.5 12.5 0 1 0 25 0 a12.5 12.5 0 1 0 -25 0z" fill="rgba(7, 146, 56, 1)"></path><path d="M775 75L825 125M775 -25L775 25L775 75L775 125" stroke="rgba(7, 146, 56, 1)" stroke-width="8.33"></path><path d="M762.5 125 a12.5 12.5 0 1 0 25 0 a12.5 12.5 0 1 0 -25 0zM812.5 125 a12.5 12.5 0 1 0 25 0 a12.5 12.5 0 1 0 -25 0z" fill="rgba(7, 146, 56, 1)"></path><path d="M1175 -25L1225 25L1275 75" stroke="rgba(3, 93, 26, 1)" stroke-width="8.33"></path><path d="M1262.5 75 a12.5 12.5 0 1 0 25 0 a12.5 12.5 0 1 0 -25 0z" fill="rgba(3, 93, 26, 1)"></path><path d="M725 175L775 225L775 275M725 -25L725 25L725 75L725 125L725 175L725 225" stroke="rgba(7, 146, 56, 1)" stroke-width="8.33"></path><path d="M712.5 225 a12.5 12.5 0 1 0 25 0 a12.5 12.5 0 1 0 -25 0zM762.5 275 a12.5 12.5 0 1 0 25 0 a12.5 12.5 0 1 0 -25 0z" fill="rgba(7, 146, 56, 1)"></path><path d="M1225 -25L1275 25L1325 75" stroke="rgba(3, 93, 26, 1)" stroke-width="8.33"></path><path d="M1312.5 75 a12.5 12.5 0 1 0 25 0 a12.5 12.5 0 1 0 -25 0z" fill="rgba(3, 93, 26, 1)"></path><path d="M675 -25L675 25L675 75L675 125L675 175" stroke="rgba(7, 146, 56, 1)" stroke-width="8.33"></path><path d="M662.5 175 a12.5 12.5 0 1 0 25 0 a12.5 12.5 0 1 0 -25 0z" fill="rgba(7, 146, 56, 1)"></path><path d="M625 -25L625 25L625 75L625 125" stroke="rgba(3, 93, 26, 1)" stroke-width="8.33"></path><path d="M612.5 125 a12.5 12.5 0 1 0 25 0 a12.5 12.5 0 1 0 -25 0z" fill="rgba(3, 93, 26, 1)"></path><path d="M1325 -25L1325 25L1375 75" stroke="rgba(3, 93, 26, 1)" stroke-width="8.33"></path><path d="M1362.5 75 a12.5 12.5 0 1 0 25 0 a12.5 12.5 0 1 0 -25 0z" fill="rgba(3, 93, 26, 1)"></path><path d="M575 -25L575 25L575 75L575 125L575 175" stroke="rgba(7, 146, 56, 1)" stroke-width="8.33"></path><path d="M562.5 175 a12.5 12.5 0 1 0 25 0 a12.5 12.5 0 1 0 -25 0z" fill="rgba(7, 146, 56, 1)"></path><path d="M525 25L475 75L475 125M525 -25L525 25L525 75L525 125" stroke="rgba(3, 93, 26, 1)" stroke-width="8.33"></path><path d="M512.5 125 a12.5 12.5 0 1 0 25 0 a12.5 12.5 0 1 0 -25 0zM462.5 125 a12.5 12.5 0 1 0 25 0 a12.5 12.5 0 1 0 -25 0z" fill="rgba(3, 93, 26, 1)"></path></g></g><defs><mask id="SvgjsMask1709"><rect width="1920" height="1080" fill="#ffffff"></rect></mask><mask id="SvgjsMask1710"><rect width="1920" height="1080" fill="white"></rect><path d="M968.75 175 a6.25 6.25 0 1 0 12.5 0 a6.25 6.25 0 1 0 -12.5 0zM1018.75 275 a6.25 6.25 0 1 0 12.5 0 a6.25 6.25 0 1 0 -12.5 0zM1068.75 225 a6.25 6.25 0 1 0 12.5 0 a6.25 6.25 0 1 0 -12.5 0z" fill="black"></path><path d="M918.75 125 a6.25 6.25 0 1 0 12.5 0 a6.25 6.25 0 1 0 -12.5 0zM868.75 175 a6.25 6.25 0 1 0 12.5 0 a6.25 6.25 0 1 0 -12.5 0z" fill="black"></path><path d="M1018.75 25 a6.25 6.25 0 1 0 12.5 0 a6.25 6.25 0 1 0 -12.5 0z" fill="black"></path><path d="M868.75 25 a6.25 6.25 0 1 0 12.5 0 a6.25 6.25 0 1 0 -12.5 0z" fill="black"></path><path d="M1218.75 225 a6.25 6.25 0 1 0 12.5 0 a6.25 6.25 0 1 0 -12.5 0zM1168.75 125 a6.25 6.25 0 1 0 12.5 0 a6.25 6.25 0 1 0 -12.5 0zM1168.75 75 a6.25 6.25 0 1 0 12.5 0 a6.25 6.25 0 1 0 -12.5 0zM1268.75 225 a6.25 6.25 0 1 0 12.5 0 a6.25 6.25 0 1 0 -12.5 0z" fill="black"></path><path d="M768.75 125 a6.25 6.25 0 1 0 12.5 0 a6.25 6.25 0 1 0 -12.5 0zM818.75 125 a6.25 6.25 0 1 0 12.5 0 a6.25 6.25 0 1 0 -12.5 0z" fill="black"></path><path d="M1268.75 75 a6.25 6.25 0 1 0 12.5 0 a6.25 6.25 0 1 0 -12.5 0z" fill="black"></path><path d="M718.75 225 a6.25 6.25 0 1 0 12.5 0 a6.25 6.25 0 1 0 -12.5 0zM768.75 275 a6.25 6.25 0 1 0 12.5 0 a6.25 6.25 0 1 0 -12.5 0z" fill="black"></path><path d="M1318.75 75 a6.25 6.25 0 1 0 12.5 0 a6.25 6.25 0 1 0 -12.5 0z" fill="black"></path><path d="M668.75 175 a6.25 6.25 0 1 0 12.5 0 a6.25 6.25 0 1 0 -12.5 0z" fill="black"></path><path d="M618.75 125 a6.25 6.25 0 1 0 12.5 0 a6.25 6.25 0 1 0 -12.5 0z" fill="black"></path><path d="M1368.75 75 a6.25 6.25 0 1 0 12.5 0 a6.25 6.25 0 1 0 -12.5 0z" fill="black"></path><path d="M568.75 175 a6.25 6.25 0 1 0 12.5 0 a6.25 6.25 0 1 0 -12.5 0z" fill="black"></path><path d="M518.75 125 a6.25 6.25 0 1 0 12.5 0 a6.25 6.25 0 1 0 -12.5 0zM468.75 125 a6.25 6.25 0 1 0 12.5 0 a6.25 6.25 0 1 0 -12.5 0z" fill="black"></path></mask></defs></svg>