<svg xmlns="http://www.w3.org/2000/svg" version="1.1" xmlns:xlink="http://www.w3.org/1999/xlink" xmlns:svgjs="http://svgjs.com/svgjs" width="1920" height="1080" preserveAspectRatio="none" viewBox="0 0 1920 1080"><g mask="url(&quot;#SvgjsMask4738&quot;)" fill="none"><rect width="1920" height="1080" x="0" y="0" fill="url(#SvgjsRadialGradient4739)"></rect><g transform="translate(0, 540)" stroke-linecap="round"><path d="M16 176.12 L16 903.88" stroke-width="24" stroke="rgba(57, 204, 57, 0.85)"></path><path d="M48 461.24 L48 618.76" stroke-width="24" stroke="rgba(57, 204, 57, 0.85)"></path><path d="M80 162.67 L80 917.33" stroke-width="24" stroke="rgba(33, 150, 33, 0.85)"></path><path d="M112 335.44 L112 744.56" stroke-width="24" stroke="rgba(33, 150, 33, 0.85)"></path><path d="M144 227.33 L144 852.67" stroke-width="24" stroke="rgba(57, 204, 57, 0.85)"></path><path d="M176 344.51 L176 735.49" stroke-width="24" stroke="rgba(57, 204, 57, 0.85)"></path><path d="M208 440.01 L208 639.99" stroke-width="24" stroke="rgba(57, 204, 57, 0.85)"></path><path d="M240 341.53 L240 738.47" stroke-width="24" stroke="rgba(57, 204, 57, 0.85)"></path><path d="M272 129.01 L272 950.99" stroke-width="24" stroke="rgba(33, 150, 33, 0.85)"></path><path d="M304 202.43 L304 877.57" stroke-width="24" stroke="rgba(57, 204, 57, 0.85)"></path><path d="M336 151.7 L336 928.3" stroke-width="24" stroke="rgba(57, 204, 57, 0.85)"></path><path d="M368 47.33 L368 1032.67" stroke-width="24" stroke="rgba(57, 204, 57, 0.85)"></path><path d="M400 75.13 L400 1004.87" stroke-width="24" stroke="rgba(57, 204, 57, 0.85)"></path><path d="M432 284.35 L432 795.65" stroke-width="24" stroke="rgba(33, 150, 33, 0.85)"></path><path d="M464 378.66 L464 701.34" stroke-width="24" stroke="rgba(33, 150, 33, 0.85)"></path><path d="M496 201.38 L496 878.62" stroke-width="24" stroke="rgba(33, 150, 33, 0.85)"></path><path d="M528 222.71 L528 857.29" stroke-width="24" stroke="rgba(57, 204, 57, 0.85)"></path><path d="M560 335.53 L560 744.47" stroke-width="24" stroke="rgba(33, 150, 33, 0.85)"></path><path d="M592 206.42 L592 873.58" stroke-width="24" stroke="rgba(33, 150, 33, 0.85)"></path><path d="M624 285.13 L624 794.87" stroke-width="24" stroke="rgba(33, 150, 33, 0.85)"></path><path d="M656 46.93 L656 1033.07" stroke-width="24" stroke="rgba(33, 150, 33, 0.85)"></path><path d="M688 104.25 L688 975.75" stroke-width="24" stroke="rgba(33, 150, 33, 0.85)"></path><path d="M720 475.41 L720 604.59" stroke-width="24" stroke="rgba(57, 204, 57, 0.85)"></path><path d="M752 150.6 L752 929.4" stroke-width="24" stroke="rgba(33, 150, 33, 0.85)"></path><path d="M784 332.99 L784 747.01" stroke-width="24" stroke="rgba(33, 150, 33, 0.85)"></path><path d="M816 142.86 L816 937.14" stroke-width="24" stroke="rgba(57, 204, 57, 0.85)"></path><path d="M848 332.19 L848 747.82" stroke-width="24" stroke="rgba(33, 150, 33, 0.85)"></path><path d="M880 272.48 L880 807.52" stroke-width="24" stroke="rgba(57, 204, 57, 0.85)"></path><path d="M912 281.03 L912 798.97" stroke-width="24" stroke="rgba(57, 204, 57, 0.85)"></path><path d="M944 362.94 L944 717.06" stroke-width="24" stroke="rgba(33, 150, 33, 0.85)"></path><path d="M976 174.73 L976 905.27" stroke-width="24" stroke="rgba(57, 204, 57, 0.85)"></path><path d="M1008 259.24 L1008 820.76" stroke-width="24" stroke="rgba(57, 204, 57, 0.85)"></path><path d="M1040 93.43 L1040 986.57" stroke-width="24" stroke="rgba(57, 204, 57, 0.85)"></path><path d="M1072 266.62 L1072 813.38" stroke-width="24" stroke="rgba(57, 204, 57, 0.85)"></path><path d="M1104 53.24 L1104 1026.76" stroke-width="24" stroke="rgba(33, 150, 33, 0.85)"></path><path d="M1136 45.21 L1136 1034.79" stroke-width="24" stroke="rgba(33, 150, 33, 0.85)"></path><path d="M1168 421.77 L1168 658.23" stroke-width="24" stroke="rgba(33, 150, 33, 0.85)"></path><path d="M1200 266.08 L1200 813.92" stroke-width="24" stroke="rgba(57, 204, 57, 0.85)"></path><path d="M1232 373.31 L1232 706.68" stroke-width="24" stroke="rgba(33, 150, 33, 0.85)"></path><path d="M1264 370.32 L1264 709.68" stroke-width="24" stroke="rgba(33, 150, 33, 0.85)"></path><path d="M1296 155.94 L1296 924.07" stroke-width="24" stroke="rgba(57, 204, 57, 0.85)"></path><path d="M1328 212.24 L1328 867.76" stroke-width="24" stroke="rgba(57, 204, 57, 0.85)"></path><path d="M1360 386.61 L1360 693.39" stroke-width="24" stroke="rgba(33, 150, 33, 0.85)"></path><path d="M1392 390.09 L1392 689.91" stroke-width="24" stroke="rgba(33, 150, 33, 0.85)"></path><path d="M1424 343.42 L1424 736.58" stroke-width="24" stroke="rgba(57, 204, 57, 0.85)"></path><path d="M1456 136.95 L1456 943.05" stroke-width="24" stroke="rgba(33, 150, 33, 0.85)"></path><path d="M1488 478.9 L1488 601.1" stroke-width="24" stroke="rgba(33, 150, 33, 0.85)"></path><path d="M1520 50.22 L1520 1029.78" stroke-width="24" stroke="rgba(33, 150, 33, 0.85)"></path><path d="M1552 301.21 L1552 778.79" stroke-width="24" stroke="rgba(57, 204, 57, 0.85)"></path><path d="M1584 283.65 L1584 796.35" stroke-width="24" stroke="rgba(57, 204, 57, 0.85)"></path><path d="M1616 233.81 L1616 846.18" stroke-width="24" stroke="rgba(57, 204, 57, 0.85)"></path><path d="M1648 345.44 L1648 734.57" stroke-width="24" stroke="rgba(33, 150, 33, 0.85)"></path><path d="M1680 163.41 L1680 916.59" stroke-width="24" stroke="rgba(33, 150, 33, 0.85)"></path><path d="M1712 403.84 L1712 676.16" stroke-width="24" stroke="rgba(33, 150, 33, 0.85)"></path><path d="M1744 148.89 L1744 931.11" stroke-width="24" stroke="rgba(33, 150, 33, 0.85)"></path><path d="M1776 139.52 L1776 940.48" stroke-width="24" stroke="rgba(57, 204, 57, 0.85)"></path><path d="M1808 460.43 L1808 619.57" stroke-width="24" stroke="rgba(33, 150, 33, 0.85)"></path><path d="M1840 298.23 L1840 781.77" stroke-width="24" stroke="rgba(33, 150, 33, 0.85)"></path><path d="M1872 161.79 L1872 918.21" stroke-width="24" stroke="rgba(33, 150, 33, 0.85)"></path><path d="M1904 271.94 L1904 808.06" stroke-width="24" stroke="rgba(57, 204, 57, 0.85)"></path></g></g><defs><mask id="SvgjsMask4738"><rect width="1920" height="1080" fill="#ffffff"></rect></mask><radialGradient cx="50%" cy="100%" r="1444.99" gradientUnits="userSpaceOnUse" id="SvgjsRadialGradient4739"><stop stop-color="rgba(3, 93, 26, 0.3)" offset="0"></stop><stop stop-color="rgba(13, 13, 13, 1)" offset="0.61"></stop></radialGradient></defs></svg>